<svg xmlns="http://www.w3.org/2000/svg" xmlns:xlink="http://www.w3.org/1999/xlink" id="Ebene_1" x="0px" y="0px" viewBox="0 0 342.6 110.5" style="enable-background:new 0 0 342.6 110.5;" xml:space="preserve"><style type="text/css">	.st0{fill:#007B4A;}</style><g>	<g>		<path class="st0" d="M0.6,65.8c0,15.1,18.5,20.5,40.4,20.5c21,0,41-5,41-21.1c0-11.5-9-17-22.9-18.7c-19.3-2.4-30.9-3.5-30.9-8.3   c0-5.6,22.3-5.9,22.3,2.4h29.3c-0.2-14.3-19.2-20.5-38.2-20.5C23.6,20.1,2.8,24,2.7,39.4C2.5,51,9.8,56.1,23.3,58.7   c13.7,2.6,31.2,2.4,31.2,8c0,7.5-22.5,6.6-22.5-0.9L0.6,65.8L0.6,65.8z"></path>		<path class="st0" d="M114,36.7H129c6.5,0,11.3,2,11.3,6.6c0,4.5-4.7,6.2-11.3,6.2H114V36.7z M89.5,84h24.6V64.6h22.3   c21.7,0,30-7.2,30-21.7c0-15.4-11.6-21.4-30-21.4H89.5V84z"></path>		<path class="st0" d="M329.7,2.9c-6.2,0-11,5-11,11c0,6.2,5,11,11,11c6.2,0,11-5,11-11C340.8,7.9,335.8,2.9,329.7,2.9 M329.7,1.1   c7.1,0,12.8,5.7,12.8,12.8s-5.7,12.8-12.8,12.8c-7.1,0-12.8-5.7-12.8-12.8C316.8,6.8,322.7,1.1,329.7,1.1"></path>		<path class="st0" d="M324.2,21.3h2.6v-5.9h3.8c2.3,0,2.9,1.2,2.9,3.8c0,0.8,0,1.5,0.5,2.1h2.7c-0.6-0.6-0.8-2.1-0.8-3.8   c0-2.3-1.2-2.9-2.1-3c0.5-0.2,2.4-0.9,2.4-3.6c0-2.4-1.7-3.9-4.8-3.9h-6.9v14.3H324.2z M326.7,8.9h4.1c1.4,0,2.6,0.3,2.6,2.3   c0,1.5-0.9,2.3-2.4,2.3h-4.1V8.9H326.7z"></path>		<path class="st0" d="M265.1,75l-0.5-0.5c-2.4-2.4-6.5-2.4-8.9,0l-14.8,14.9l-5.4-5.4h-16c9.2,12.5,24,20.5,40.6,20.5   c27.9,0,50.4-22.6,50.4-50.4c0-27.9-22.6-50.4-50.4-50.4c-19.5,0-36.3,11-44.8,27.3l15.8,36.2l8.1-8.3c2.4-2.4,2.7-6.8,0.3-9.2   L224.8,35l16-16l14.8,14.8c2.4,2.4,6.9,2.3,9.3-0.3L279.4,19l16,16l-14.9,14.8c-2.4,2.4-2.4,6.5,0,9l14.8,14.8l-16,16L265.1,75z    M183.8,21.5h27.6l2.4,5.6c9.3-16,26.7-26.7,46.4-26.7c29.7,0,53.8,24.1,53.8,53.8S289.9,108,260.2,108c-21,0-39.1-11.9-48-29.3   h-29.9l-2.3,5.4h-24L183.8,21.5z M188,64.1h19l-9.3-25.3L188,64.1z"></path>	</g></g></svg>