<svg width="134" height="23" viewBox="0 0 134 23" fill="none" xmlns="http://www.w3.org/2000/svg">
<g clip-path="url(#clip0_7257_12348)">
<path d="M22.42 0.925781L16.76 7.24517L11.13 0.925781H0.33L10.16 11.3741L0 22.4039H10.18L16.31 15.6775L22.5 22.4039H32.89L22.85 11.2966L32.44 0.935476H22.41L22.42 0.925781ZM35.2 0.925781V22.3942H59.02V16.2493H43.66V0.925781H35.2ZM77.39 6.17902L81.11 13.5646H73.75L77.38 6.17902H77.39ZM71.85 0.925781L60.89 22.3942H69.47L71.17 18.9341H83.82L85.55 22.3942H94.81L83.23 0.925781H71.85ZM122.26 0.925781L115.35 12.9927L108.56 0.925781H96.95V22.3942H105.2V8.99948L112.94 22.3942H117.26L125.03 8.99948V22.3942H133.4V0.925781H122.26Z" fill="white"/>
</g>
<defs>
<clipPath id="clip0_7257_12348">
<rect width="134" height="23" fill="white"/>
</clipPath>
</defs>
</svg>
